<svg viewBox="0 0 27 27" fill="none" xmlns="http://www.w3.org/2000/svg">
<path d="M14.9364 12.8218L14.759 12.9987L14.9364 13.1757L21.3801 19.6054L21.3807 19.6059C21.4977 19.722 21.5906 19.8601 21.654 20.0123C21.7174 20.1645 21.75 20.3277 21.75 20.4925C21.75 20.6574 21.7174 20.8206 21.654 20.9728C21.5906 21.125 21.4977 21.2631 21.3807 21.3792L21.3792 21.3806C21.2631 21.4977 21.1251 21.5906 20.9729 21.654C20.8208 21.7174 20.6576 21.75 20.4928 21.75C20.3279 21.75 20.1648 21.7174 20.0126 21.654C19.8605 21.5906 19.7224 21.4977 19.6063 21.3806L19.6058 21.3801L13.177 14.9354L13 14.758L12.823 14.9354L6.39422 21.3801L6.3937 21.3806C6.27763 21.4977 6.13954 21.5906 5.98739 21.654C5.83525 21.7174 5.67206 21.75 5.50724 21.75C5.34242 21.75 5.17923 21.7174 5.02709 21.654C4.87495 21.5906 4.73685 21.4977 4.62079 21.3806L4.61933 21.3792C4.50231 21.2631 4.40942 21.125 4.34603 20.9728C4.28264 20.8206 4.25 20.6574 4.25 20.4925C4.25 20.3277 4.28264 20.1645 4.34603 20.0123C4.40942 19.8601 4.50231 19.722 4.61933 19.6059L4.61985 19.6054L11.0636 13.1757L11.241 12.9987L11.0636 12.8218L4.62006 6.39226C4.62005 6.39224 4.62003 6.39223 4.62002 6.39222C4.38474 6.15689 4.25256 5.83771 4.25256 5.5049C4.25256 5.17207 4.38476 4.85287 4.62006 4.61754C4.85536 4.3822 5.17449 4.25 5.50724 4.25C5.83993 4.25 6.159 4.38215 6.39429 4.61741C6.39433 4.61745 6.39438 4.61749 6.39442 4.61754L12.823 11.062L13 11.2395L13.177 11.062L19.6056 4.61754L19.6058 4.61733C19.8411 4.38213 20.1601 4.25 20.4928 4.25C20.8255 4.25 21.1446 4.3822 21.3799 4.61754C21.6152 4.85287 21.7474 5.17207 21.7474 5.5049C21.7474 5.83769 21.6153 6.15684 21.38 6.39217C21.38 6.3922 21.38 6.39223 21.3799 6.39226L14.9364 12.8218Z" fill="currentColor" stroke="none" stroke-width="0.5"/>
</svg>
