<svg viewBox="0 0 27 27" fill="none" xmlns="http://www.w3.org/2000/svg">
<path d="M24 7H20.925C20.55 5.275 19.05 4 17.25 4C15.45 4 13.95 5.275 13.575 7H3V8.5H13.575C13.95 10.225 15.45 11.5 17.25 11.5C19.05 11.5 20.55 10.225 20.925 8.5H24V7ZM17.25 10C15.975 10 15 9.025 15 7.75C15 6.475 15.975 5.5 17.25 5.5C18.525 5.5 19.5 6.475 19.5 7.75C19.5 9.025 18.525 10 17.25 10Z" fill="currentColor"/>
<path d="M3 19H6.075C6.45 20.725 7.95 22 9.75 22C11.55 22 13.05 20.725 13.425 19H24V17.5H13.425C13.05 15.775 11.55 14.5 9.75 14.5C7.95 14.5 6.45 15.775 6.075 17.5H3V19ZM9.75 16C11.025 16 12 16.975 12 18.25C12 19.525 11.025 20.5 9.75 20.5C8.475 20.5 7.5 19.525 7.5 18.25C7.5 16.975 8.475 16 9.75 16Z" fill="currentColor"/>
</svg>
