<svg viewBox="0 0 28 28" fill="none" xmlns="http://www.w3.org/2000/svg">
<path d="M26.347 10.6058C26.1024 10.609 25.8688 10.7075 25.6959 10.8805C25.523 11.0534 25.4245 11.287 25.4213 11.5315V18.9371L20.262 13.0373C19.9343 12.6883 19.5384 12.4102 19.099 12.2201C18.6596 12.03 18.1859 11.9319 17.7071 11.9319C17.2284 11.9319 16.7547 12.03 16.3152 12.2201C15.8758 12.4102 15.48 12.6883 15.1522 13.0373L11.6099 17.0857L10.4497 15.6786C10.13 15.2951 9.72988 14.9865 9.27771 14.7748C8.82554 14.5631 8.33235 14.4533 7.83305 14.4533C7.33376 14.4533 6.84057 14.5631 6.3884 14.7748C5.93623 14.9865 5.53613 15.2951 5.21642 15.6786L2.58745 18.8507V6.59445C2.59071 5.53158 3.01437 4.51317 3.76594 3.7616C4.51751 3.01003 5.53592 2.58636 6.59879 2.58311H16.4729C16.7184 2.58311 16.9538 2.48558 17.1274 2.31198C17.301 2.13838 17.3986 1.90292 17.3986 1.65741C17.3986 1.41191 17.301 1.17645 17.1274 1.00285C16.9538 0.829248 16.7184 0.73172 16.4729 0.73172H6.59879C5.0439 0.73172 3.55269 1.3494 2.45322 2.44887C1.35374 3.54835 0.736061 5.03956 0.736061 6.59445V21.4056C0.730232 21.4257 0.730232 21.4471 0.736061 21.4673C0.752316 23.0115 1.37716 24.4869 2.47488 25.573C3.5726 26.6592 5.05453 27.2684 6.59879 27.2683H21.4099C22.9478 27.2652 24.4229 26.658 25.5173 25.5775C26.6117 24.497 27.2376 23.0297 27.2603 21.492V11.5315C27.2572 11.2891 27.1604 11.0573 26.9901 10.8847C26.8198 10.7121 26.5893 10.6122 26.347 10.6058ZM21.4099 25.4169H6.59879C5.59055 25.4137 4.62048 25.0309 3.88172 24.3448C3.14296 23.6586 2.68969 22.7194 2.61214 21.7141L6.59879 16.8635C6.74812 16.6971 6.9308 16.5641 7.13495 16.473C7.3391 16.3819 7.56014 16.3348 7.78368 16.3348C8.00723 16.3348 8.22827 16.3819 8.43242 16.473C8.63657 16.5641 8.81925 16.6971 8.96857 16.8635L10.8323 19.1098C10.9178 19.2138 11.0252 19.2976 11.1468 19.3552C11.2684 19.4128 11.4013 19.4428 11.5358 19.4431C11.8024 19.4284 12.0535 19.3138 12.2394 19.1222L16.4852 14.2592C16.6363 14.1001 16.8181 13.9734 17.0197 13.8868C17.2213 13.8003 17.4384 13.7556 17.6578 13.7556C17.8771 13.7556 18.0942 13.8003 18.2958 13.8868C18.4974 13.9734 18.6793 14.1001 18.8303 14.2592L25.3349 21.6648C25.2729 22.6693 24.8344 23.6136 24.1068 24.3091C23.3793 25.0046 22.4163 25.4002 21.4099 25.4169Z" fill="currentColor"/>
<path d="M4.43896 7.82871C4.43896 8.50003 4.63803 9.15626 5.01099 9.71444C5.38395 10.2726 5.91406 10.7077 6.53427 10.9646C7.15448 11.2215 7.83694 11.2887 8.49536 11.1577C9.15377 11.0267 9.75856 10.7035 10.2333 10.2288C10.7079 9.7541 11.0312 9.14931 11.1622 8.49089C11.2931 7.83248 11.2259 7.15002 10.969 6.5298C10.7121 5.90959 10.2771 5.37949 9.7189 5.00653C9.16073 4.63357 8.50449 4.4345 7.83318 4.4345C6.93298 4.4345 6.06965 4.7921 5.43311 5.42864C4.79657 6.06518 4.43896 6.92851 4.43896 7.82871ZM9.376 7.82871C9.376 8.13386 9.28552 8.43214 9.11599 8.68586C8.94646 8.93958 8.70551 9.13732 8.42359 9.2541C8.14168 9.37087 7.83147 9.40142 7.53219 9.34189C7.23291 9.28236 6.95801 9.13542 6.74224 8.91965C6.52647 8.70389 6.37953 8.42898 6.32 8.1297C6.26047 7.83043 6.29102 7.52021 6.40779 7.2383C6.52457 6.95639 6.72232 6.71543 6.97603 6.5459C7.22975 6.37637 7.52804 6.28589 7.83318 6.28589C8.24236 6.28589 8.63479 6.44844 8.92412 6.73777C9.21346 7.02711 9.376 7.41953 9.376 7.82871ZM18.9415 6.28589H21.7186V9.06297C21.7186 9.30848 21.8161 9.54394 21.9897 9.71754C22.1633 9.89114 22.3988 9.98867 22.6443 9.98867C22.8898 9.98867 23.1253 9.89114 23.2989 9.71754C23.4725 9.54394 23.57 9.30848 23.57 9.06297V6.28589H26.3471C26.5926 6.28589 26.828 6.18836 27.0016 6.01476C27.1752 5.84116 27.2728 5.6057 27.2728 5.36019C27.2728 5.11468 27.1752 4.87923 27.0016 4.70563C26.828 4.53203 26.5926 4.4345 26.3471 4.4345H23.57V1.65741C23.57 1.41191 23.4725 1.17645 23.2989 1.00285C23.1253 0.829248 22.8898 0.73172 22.6443 0.73172C22.3988 0.73172 22.1633 0.829248 21.9897 1.00285C21.8161 1.17645 21.7186 1.41191 21.7186 1.65741V4.4345H18.9415C18.696 4.4345 18.4606 4.53203 18.287 4.70563C18.1134 4.87923 18.0158 5.11468 18.0158 5.36019C18.0158 5.6057 18.1134 5.84116 18.287 6.01476C18.4606 6.18836 18.696 6.28589 18.9415 6.28589Z" fill="currentColor"/>
</svg>
